# xmcd
#
# Track frame offsets: 
#        150
#        25102
#        42732
#        72657
#        93950
#        137712
#        171617
#        206775
#        231210
#        245047
#
# Disc length: 3801 seconds
#
# Revision: 1
# Processed by: cddbd v1.5.2PL0 Copyright (c) Steve Scherf et al.
# Submitted via: ExactAudioCopyFreeDBPlugin 1.0
#
DISCID=9b0ed70a
DTITLE=Bruce Stark - To The Winter Sun
DYEAR=1993
DGENRE=New Age
TTITLE0=Romance
TTITLE1=Hush
TTITLE2=The Moon and 1
TTITLE3=I.Folk Dance
TTITLE4=Song to the Winter Sun
TTITLE5=Dance of the Mirrior
TTITLE6=Lament
TTITLE7=Song of the Whale
TTITLE8=Bone Tones
TTITLE9=Hymns
EXTD=YEAR: 1993
EXTT0=
EXTT1=
EXTT2=
EXTT3=
EXTT4=
EXTT5=
EXTT6=
EXTT7=
EXTT8=
EXTT9=
PLAYORDER=
